<svg width="18" height="17" viewBox="0 0 18 17" fill="none" xmlns="http://www.w3.org/2000/svg">
<path fill-rule="evenodd" clip-rule="evenodd" d="M0.13885 7.16664C0.0420017 7.80316 0.0476987 8.4532 0.153093 9.09513C0.312608 10.0784 0.930775 10.937 1.8366 11.4381C4.31763 12.8113 10.194 16.0644 10.194 16.0644C10.4532 16.2052 10.7696 16.2052 11.0288 16.0644C11.2851 15.9235 11.4447 15.6635 11.4447 15.3818V0.790599C11.4447 0.508906 11.2851 0.246151 11.0288 0.105304C10.7696 -0.0355426 10.4532 -0.0355532 10.194 0.108002C10.194 0.108002 4.31763 3.35835 1.8366 4.7316C0.930775 5.23269 0.312608 6.09401 0.153093 7.07723L0.13885 7.16664ZM12.812 2.20991C12.812 2.18012 12.8262 2.1503 12.8547 2.13405C12.8803 2.11509 12.9143 2.11237 12.9428 2.12321C15.4894 3.02246 17.301 5.35455 17.301 8.08481C17.301 10.8178 15.4894 13.1472 12.9428 14.0492C12.9143 14.06 12.8803 14.0546 12.8547 14.0383C12.8291 14.0194 12.812 13.9922 12.812 13.9625C12.812 13.632 12.812 12.7843 12.812 12.489C12.812 12.4267 12.849 12.3671 12.9088 12.34C14.5296 11.5464 15.6404 9.93749 15.6404 8.08481C15.6404 6.23213 14.5296 4.62594 12.9088 3.83232C12.849 3.80252 12.812 3.74565 12.812 3.68065C12.812 3.38541 12.812 2.53765 12.812 2.20991ZM1.79387 7.3264V7.32101C1.87647 6.80908 2.20134 6.35947 2.67134 6.09944L9.78099 2.16383C9.78099 2.16383 9.78099 12.2127 9.78099 13.7972C9.78099 13.8406 9.75834 13.8812 9.71846 13.9029C9.67858 13.9246 9.63305 13.9246 9.59317 13.9029C7.69038 12.8492 4.37758 11.0182 2.67134 10.0729C2.20134 9.8129 1.87647 9.36329 1.79387 8.85136C1.71126 8.34485 1.71126 7.82751 1.79387 7.32101V7.3264ZM12.812 5.26248C12.812 5.22456 12.8348 5.18932 12.8689 5.17307C12.906 5.15682 12.9486 5.15954 12.98 5.18392C13.8887 5.85565 14.4754 6.90657 14.4754 8.08481C14.4754 9.26575 13.8887 10.314 12.98 10.9885C12.9486 11.0101 12.906 11.0128 12.8689 10.9965C12.8348 10.9803 12.812 10.9451 12.812 10.9099C12.812 9.9998 12.812 6.17256 12.812 5.26248ZM0.13885 7.16389L0.150422 7.08263C0.147574 7.10971 0.141699 7.1368 0.13885 7.16389L0.104802 7.37248L0.13885 7.16664V7.16389Z" fill="#B3B3B3"/>
</svg>
