<svg width="17" height="16" viewBox="0 0 17 16" fill="none" xmlns="http://www.w3.org/2000/svg">
<path d="M14.0511 1.51817C14.8654 1.51817 15.5256 2.19789 15.5256 3.03635V10.309C15.5256 11.1474 14.8654 11.8271 14.0511 11.8271H10.4399L11.8645 10.3603C12.0511 10.0648 12.0149 9.66092 11.7582 9.39661C11.5009 9.13166 11.1073 9.0948 10.8201 9.28861L8.13882 12.0495C7.85092 12.3459 7.85092 12.8265 8.13882 13.123L10.7944 15.8573C11.0833 16.0731 11.493 16.0438 11.7572 15.7717C12.0148 15.5066 12.0483 15.0991 11.8558 14.8032L10.4399 13.3453H14.0511C15.6797 13.3453 17 11.9859 17 10.309V3.03635C17 1.35942 15.6797 0 14.0511 0H3.94887C2.32025 0 1 1.35942 1 3.03635V10.309C1 11.9859 2.32025 13.3453 3.94887 13.3453H6.21631V11.8271H3.94887C3.13456 11.8271 2.47443 11.1474 2.47443 10.309V3.03635C2.47443 2.19788 3.13456 1.51817 3.94887 1.51817H14.0511Z" fill="#B3B3B3"/>
</svg>
