<svg width="24" height="24" viewBox="0 0 24 24" fill="none" xmlns="http://www.w3.org/2000/svg">
<path d="M7.51165 11.8022C7.4975 11.8174 7.48224 11.834 7.46582 11.8519C7.26546 12.07 6.89184 12.4767 6.244 12.8517C5.54734 13.2548 4.50699 13.6341 3.01075 13.6238L3 15.193C4.78514 15.2052 6.09944 14.7483 7.02998 14.2098C7.88911 13.7126 8.3988 13.1564 8.61557 12.9199C8.63225 12.9017 8.64768 12.8848 8.66091 12.8706C8.81342 12.7066 8.96549 12.5444 9.11945 12.3802C10.1948 11.2334 11.3626 9.98787 13.4181 7.31995C14.9057 5.38908 16.9503 4.9512 17.4169 4.93953H17.9391L16.7233 6.15528C16.5186 6.46965 16.5542 6.89482 16.8301 7.17069C17.0884 7.42901 17.4776 7.47664 17.7842 7.31359L20.388 4.70973C20.6944 4.40333 20.6944 3.90655 20.388 3.60015L17.8882 1.10034C17.5801 0.930525 17.1849 0.976256 16.9236 1.23753C16.6516 1.50953 16.6132 1.92668 16.8084 2.23966L17.9391 3.37035L17.4017 3.37035L17.3947 3.37047C16.5387 3.38576 14.0034 3.98901 12.175 6.36226C10.166 8.96999 9.03947 10.1714 7.97366 11.308L7.97227 11.3095C7.8183 11.4737 7.66558 11.6366 7.51165 11.8022Z" fill="#1ED760"/>
<path d="M7.46604 5.93978C7.48243 5.95762 7.49766 5.9742 7.51178 5.98939C7.66572 6.15497 7.81843 6.31785 7.97241 6.48206L7.97347 6.48319C8.3488 6.88347 8.73198 7.29213 9.15825 7.76705L10.3427 6.73743C9.8992 6.24284 9.50365 5.82099 9.11986 5.41168C8.9659 5.24749 8.81356 5.08502 8.66104 4.92096C8.64782 4.90674 8.63288 4.89044 8.6162 4.87224C8.39943 4.6357 7.88925 4.07897 7.03012 3.58178C6.09957 3.04326 4.78528 2.58638 3.00014 2.5986L3.01088 4.16775C4.50712 4.1575 5.54747 4.53676 6.24413 4.93993C6.89198 5.31485 7.26568 5.72166 7.46604 5.93978Z" fill="#1ED760"/>
<path d="M12.1752 11.4293C12.0888 11.3172 12.004 11.2076 11.9208 11.1006L13.1068 10.0696C13.2083 10.1999 13.3121 10.3339 13.4182 10.4716C14.9058 12.4025 16.9504 12.8404 17.417 12.852H17.9392L16.7235 11.6363C16.5187 11.3219 16.5543 10.8968 16.8302 10.6209C17.0885 10.3626 17.4777 10.3149 17.7843 10.478L20.3882 13.0818C20.6946 13.3883 20.6946 13.885 20.3882 14.1914L17.8884 16.6912C17.5802 16.8611 17.185 16.8153 16.9237 16.554C16.6517 16.282 16.6133 15.8649 16.8085 15.5519L17.9392 14.4212H17.4018L17.3948 14.4211C16.5389 14.4058 14.0036 13.8026 12.1752 11.4293Z" fill="#1ED760"/>
<path d="M13.3782 21.4308C13.3782 22.2975 12.6757 23 11.809 23C10.9424 23 10.2399 22.2975 10.2399 21.4308C10.2399 20.5642 10.9424 19.8616 11.809 19.8616C12.6757 19.8616 13.3782 20.5642 13.3782 21.4308Z" fill="#1ED760"/>
</svg>
