<svg width="19" height="18" viewBox="0 0 19 18" fill="none" xmlns="http://www.w3.org/2000/svg">
<path d="M9.98047 1C9.5788 1 9.2532 1.32564 9.2532 1.72727V8.27273H2.70774C2.30607 8.27273 1.98047 8.59837 1.98047 9C1.98047 9.40163 2.30607 9.72727 2.70774 9.72727H9.2532V16.2727C9.2532 16.6744 9.5788 17 9.98047 17C10.3821 17 10.7077 16.6744 10.7077 16.2727V9.72727H17.2532C17.6549 9.72727 17.9805 9.40163 17.9805 9C17.9805 8.59837 17.6549 8.27273 17.2532 8.27273H10.7077V1.72727C10.7077 1.32564 10.3821 1 9.98047 1Z" fill="#B3B3B3"/>
</svg>
