<svg width="16" height="16" viewBox="0 0 16 16" fill="none" xmlns="http://www.w3.org/2000/svg">
<mask id="path-1-inside-1_64_215" fill="white">
<path fill-rule="evenodd" clip-rule="evenodd" d="M2 0C1.44772 0 1 0.447715 1 1V14C1 14.5523 1.44771 15 2 15H2.58606C3.13835 15 3.58606 14.5523 3.58606 14V8.56743L13.7344 14.5551C14.0677 14.7517 14.4885 14.5115 14.4885 14.1245L14.4885 0.866479C14.4885 0.481488 14.0716 0.240938 13.7383 0.433571L3.58606 6.30052V1C3.58606 0.447715 3.13835 0 2.58606 0H2Z"/>
</mask>
<path fill-rule="evenodd" clip-rule="evenodd" d="M2 0C1.44772 0 1 0.447715 1 1V14C1 14.5523 1.44771 15 2 15H2.58606C3.13835 15 3.58606 14.5523 3.58606 14V8.56743L13.7344 14.5551C14.0677 14.7517 14.4885 14.5115 14.4885 14.1245L14.4885 0.866479C14.4885 0.481488 14.0716 0.240938 13.7383 0.433571L3.58606 6.30052V1C3.58606 0.447715 3.13835 0 2.58606 0H2Z" fill="#B3B3B3"/>
<path d="M3.58606 8.56743L4.09422 7.70617L2.58606 6.81634V8.56743H3.58606ZM13.7344 14.5551L13.2262 15.4163L13.2262 15.4163L13.7344 14.5551ZM14.4885 14.1245L13.4885 14.1245V14.1245H14.4885ZM14.4885 0.866479L15.4885 0.866479V0.866479H14.4885ZM13.7383 0.433571L14.2386 1.29939L14.2386 1.29939L13.7383 0.433571ZM3.58606 6.30052H2.58606V8.03339L4.08642 7.16634L3.58606 6.30052ZM2 1L2 1V-1C0.895431 -1 0 -0.10457 0 1H2ZM2 14V1H0V14H2ZM2 14H2H0C0 15.1046 0.895429 16 2 16V14ZM2.58606 14H2V16H2.58606V14ZM2.58606 14H2.58606V16C3.69063 16 4.58606 15.1046 4.58606 14H2.58606ZM2.58606 8.56743V14H4.58606V8.56743H2.58606ZM14.2425 13.6938L4.09422 7.70617L3.07791 9.4287L13.2262 15.4163L14.2425 13.6938ZM13.4885 14.1245C13.4885 13.7374 13.9092 13.4972 14.2425 13.6938L13.2262 15.4163C14.2262 16.0063 15.4885 15.2855 15.4885 14.1245H13.4885ZM13.4885 0.866479L13.4885 14.1245L15.4885 14.1245L15.4885 0.866479L13.4885 0.866479ZM14.2386 1.29939C13.9053 1.49202 13.4885 1.25148 13.4885 0.866479H15.4885C15.4885 -0.288499 14.2379 -1.01015 13.2379 -0.432249L14.2386 1.29939ZM4.08642 7.16634L14.2386 1.29939L13.2379 -0.432249L3.08571 5.4347L4.08642 7.16634ZM2.58606 1V6.30052H4.58606V1H2.58606ZM2.58606 1H2.58606H4.58606C4.58606 -0.104569 3.69064 -1 2.58606 -1V1ZM2 1H2.58606V-1H2V1Z" fill="#B3B3B3" mask="url(#path-1-inside-1_64_215)"/>
</svg>
