<svg width="18" height="19" viewBox="0 0 18 19" fill="none" xmlns="http://www.w3.org/2000/svg">
<path fill-rule="evenodd" clip-rule="evenodd" d="M13.3131 12.8903C14.2234 11.65 14.7655 10.0923 14.7655 8.40019C14.7655 4.3544 11.6662 1.07446 7.84273 1.07446C4.01928 1.07446 0.919922 4.3544 0.919922 8.40019C0.919922 12.446 4.01928 15.7259 7.84273 15.7259C9.54212 15.7259 11.0985 15.0783 12.3033 14.0029L15.796 17.6985C16.0805 17.9998 16.542 17.9998 16.8264 17.6985C17.1111 17.3977 17.1111 16.9093 16.8264 16.6081L13.3131 12.8903ZM7.84273 14.2608C4.78411 14.2608 2.30441 11.6368 2.30441 8.40019C2.30441 5.16356 4.78411 2.53953 7.84273 2.53953C10.9013 2.53953 13.381 5.16356 13.381 8.40019C13.381 11.6368 10.9013 14.2608 7.84273 14.2608Z" fill="#B3B3B3" stroke="#B3B3B3" stroke-width="0.5"/>
</svg>
