<svg width="17" height="16" viewBox="0 0 17 16" fill="none" xmlns="http://www.w3.org/2000/svg">
<mask id="path-1-inside-1_64_216" fill="white">
<path fill-rule="evenodd" clip-rule="evenodd" d="M15.3878 0C15.9401 0 16.3878 0.447715 16.3878 1V15C16.3878 15.5523 15.9401 16 15.3878 16H14.6293C14.0771 16 13.6293 15.5523 13.6293 15V9.13856L2.75414 15.5551C2.42083 15.7517 2.00006 15.5115 2.00006 15.1245L2.00006 0.866483C2.00006 0.481491 2.41691 0.24094 2.75024 0.433573L13.6293 6.72059V1C13.6293 0.447715 14.0771 0 14.6293 0H15.3878Z"/>
</mask>
<path fill-rule="evenodd" clip-rule="evenodd" d="M15.3878 0C15.9401 0 16.3878 0.447715 16.3878 1V15C16.3878 15.5523 15.9401 16 15.3878 16H14.6293C14.0771 16 13.6293 15.5523 13.6293 15V9.13856L2.75414 15.5551C2.42083 15.7517 2.00006 15.5115 2.00006 15.1245L2.00006 0.866483C2.00006 0.481491 2.41691 0.24094 2.75024 0.433573L13.6293 6.72059V1C13.6293 0.447715 14.0771 0 14.6293 0H15.3878Z" fill="#B3B3B3"/>
<path d="M13.6293 9.13856L13.1212 8.2773L14.6293 7.38746V9.13856H13.6293ZM2.75414 15.5551L3.2623 16.4163L2.75414 15.5551ZM2.00006 15.1245H3.00006H2.00006ZM2.00006 0.866483L1.00006 0.866483V0.866483H2.00006ZM2.75024 0.433573L2.24989 1.29939V1.29939L2.75024 0.433573ZM13.6293 6.72059H14.6293V8.45346L13.129 7.58641L13.6293 6.72059ZM15.3878 1V-1C16.4924 -1 17.3878 -0.104569 17.3878 1H15.3878ZM15.3878 15V1H17.3878V15H15.3878ZM15.3878 15H17.3878C17.3878 16.1046 16.4924 17 15.3878 17V15ZM14.6293 15H15.3878V17H14.6293V15ZM14.6293 15V17C13.5248 17 12.6293 16.1046 12.6293 15H14.6293ZM14.6293 9.13856V15H12.6293V9.13856H14.6293ZM2.24599 14.6938L13.1212 8.2773L14.1375 9.99983L3.2623 16.4163L2.24599 14.6938ZM3.00006 15.1245C3.00006 14.7374 2.5793 14.4972 2.24599 14.6938L3.2623 16.4163C2.26237 17.0063 1.00006 16.2855 1.00006 15.1245H3.00006ZM3.00006 0.866483L3.00006 15.1245H1.00006L1.00006 0.866483L3.00006 0.866483ZM2.24989 1.29939C2.58322 1.49203 3.00006 1.25147 3.00006 0.866483H1.00006C1.00006 -0.288491 2.2506 -1.01015 3.2506 -0.432247L2.24989 1.29939ZM13.129 7.58641L2.24989 1.29939L3.2506 -0.432247L14.1297 5.85477L13.129 7.58641ZM14.6293 1V6.72059H12.6293V1H14.6293ZM14.6293 1H12.6293C12.6293 -0.10457 13.5248 -1 14.6293 -1V1ZM15.3878 1H14.6293V-1H15.3878V1Z" fill="#B3B3B3" mask="url(#path-1-inside-1_64_216)"/>
</svg>
